<svg xmlns="http://www.w3.org/2000/svg" width="1200" height="800" viewBox="0 0 1200 800">
  <defs>
    <linearGradient id="bg" x1="0" y1="0" x2="1" y2="1">
      <stop offset="0%" stop-color="#2b1d17"/>
      <stop offset="100%" stop-color="#55362b"/>
    </linearGradient>
    <linearGradient id="wood" x1="0" y1="0" x2="1" y2="0">
      <stop offset="0%" stop-color="#5b3a2d"/>
      <stop offset="100%" stop-color="#7a4a35"/>
    </linearGradient>
  </defs>

  <rect width="1200" height="800" fill="url(#bg)"/>

  <rect x="0" y="520" width="1200" height="280" fill="#3b241c"/>
  <rect x="0" y="520" width="1200" height="280" fill="url(#wood)" opacity="0.55"/>
  <rect x="120" y="470" width="960" height="40" rx="10" fill="#2a1914"/>

  <circle cx="200" cy="160" r="32" fill="#b08a5a"/>
  <rect x="170" y="200" width="60" height="110" rx="12" fill="#1b1b1b"/>
  <rect x="160" y="220" width="80" height="140" rx="18" fill="#2a2a2a"/>
  <rect x="156" y="360" width="88" height="110" rx="18" fill="#1f1f1f"/>
  <rect x="175" y="250" width="50" height="80" rx="8" fill="#ffffff"/>
  <rect x="180" y="260" width="40" height="100" rx="8" fill="#e7e3de"/>

  <circle cx="980" cy="160" r="32" fill="#caa27a"/>
  <rect x="950" y="200" width="60" height="110" rx="12" fill="#1b1b1b"/>
  <rect x="940" y="220" width="80" height="140" rx="18" fill="#2a2a2a"/>
  <rect x="936" y="360" width="88" height="110" rx="18" fill="#1f1f1f"/>
  <rect x="955" y="250" width="50" height="80" rx="8" fill="#ffffff"/>
  <rect x="960" y="260" width="40" height="100" rx="8" fill="#e7e3de"/>

  <rect x="430" y="160" width="340" height="260" rx="28" fill="#1d1d1d"/>
  <rect x="460" y="190" width="280" height="200" rx="20" fill="#2a2a2a"/>
  <rect x="520" y="150" width="160" height="40" rx="10" fill="#b08a5a"/>
  <text x="600" y="178" font-family="Arial, sans-serif" font-size="18" fill="#1b1b1b" text-anchor="middle">
    WAIT STAFF
  </text>

  <rect x="120" y="470" width="960" height="10" rx="5" fill="#b08a5a" opacity="0.4"/>
</svg>
