<svg xmlns="http://www.w3.org/2000/svg" width="1200" height="1200" viewBox="0 0 1200 1200">
  <defs>
    <linearGradient id="wood" x1="0" y1="0" x2="1" y2="0">
      <stop offset="0%" stop-color="#4b2f25"/>
      <stop offset="50%" stop-color="#6a3f30"/>
      <stop offset="100%" stop-color="#4b2f25"/>
    </linearGradient>
    <linearGradient id="bg" x1="0" y1="0" x2="1" y2="1">
      <stop offset="0%" stop-color="#1b1310"/>
      <stop offset="100%" stop-color="#3a261f"/>
    </linearGradient>
    <radialGradient id="glow" cx="50%" cy="15%" r="60%">
      <stop offset="0%" stop-color="#7a4d39" stop-opacity="0.55"/>
      <stop offset="100%" stop-color="#000" stop-opacity="0"/>
    </radialGradient>
  </defs>

  <rect width="1200" height="1200" fill="url(#bg)"/>
  <rect width="1200" height="1200" fill="url(#glow)"/>

  <rect x="0" y="720" width="1200" height="480" fill="#2a1a14"/>
  <rect x="0" y="720" width="1200" height="480" fill="url(#wood)" opacity="0.65"/>
  <rect x="100" y="680" width="1000" height="48" rx="14" fill="#1f120e"/>
  <rect x="120" y="690" width="960" height="10" rx="5" fill="#b08a5a" opacity="0.55"/>

  <g transform="translate(220 280)">
    <circle cx="120" cy="110" r="78" fill="#d9b08c"/>
    <rect x="55" y="190" width="130" height="170" rx="26" fill="#1a1a1a"/>
    <rect x="40" y="210" width="160" height="260" rx="34" fill="#252525"/>
    <rect x="35" y="455" width="170" height="220" rx="34" fill="#1f1f1f"/>
    <rect x="75" y="230" width="90" height="200" rx="14" fill="#ffffff"/>
    <rect x="82" y="245" width="76" height="230" rx="14" fill="#e8e2dd"/>
    <rect x="20" y="310" width="70" height="18" rx="9" fill="#252525"/>
    <rect x="150" y="310" width="70" height="18" rx="9" fill="#252525"/>
    <rect x="88" y="260" width="64" height="24" rx="12" fill="#0f0f0f"/>
  </g>

  <g transform="translate(640 300)">
    <circle cx="120" cy="110" r="78" fill="#e1bda2"/>
    <rect x="55" y="190" width="130" height="170" rx="26" fill="#1a1a1a"/>
    <rect x="40" y="210" width="160" height="260" rx="34" fill="#252525"/>
    <rect x="35" y="455" width="170" height="220" rx="34" fill="#1f1f1f"/>
    <rect x="75" y="230" width="90" height="200" rx="14" fill="#ffffff"/>
    <rect x="82" y="245" width="76" height="230" rx="14" fill="#e8e2dd"/>
    <rect x="20" y="310" width="70" height="18" rx="9" fill="#252525"/>
    <rect x="150" y="310" width="70" height="18" rx="9" fill="#252525"/>
    <rect x="88" y="260" width="64" height="24" rx="12" fill="#0f0f0f"/>
  </g>

  <g>
    <rect x="140" y="140" width="200" height="22" rx="11" fill="#c89d6a" opacity="0.65"/>
    <rect x="360" y="140" width="160" height="22" rx="11" fill="#b08a5a" opacity="0.5"/>
    <rect x="540" y="140" width="220" height="22" rx="11" fill="#c89d6a" opacity="0.45"/>
    <rect x="780" y="140" width="140" height="22" rx="11" fill="#b08a5a" opacity="0.55"/>
  </g>
</svg>
